<mxfile host="Electron" agent="Mozilla/5.0 (Macintosh; Intel Mac OS X 10_15_7) AppleWebKit/537.36 (KHTML, like Gecko) draw.io/26.1.1 Chrome/132.0.6834.210 Electron/34.3.3 Safari/537.36" version="26.1.1">
  <diagram name="Page-1" id="KrUfDKpvrZJfTJGEwZ8L">
    <mxGraphModel dx="1114" dy="878" grid="1" gridSize="10" guides="1" tooltips="1" connect="1" arrows="1" fold="1" page="1" pageScale="1" pageWidth="827" pageHeight="1169" math="0" shadow="0">
      <root>
        <mxCell id="0" />
        <mxCell id="1" parent="0" />
        <mxCell id="b-FfrLe-DlQtlGeS-VwI-1" value="Computer" style="rounded=1;whiteSpace=wrap;html=1;fontStyle=1;verticalAlign=top;" vertex="1" parent="1">
          <mxGeometry x="143" y="90" width="376" height="410" as="geometry" />
        </mxCell>
        <mxCell id="b-FfrLe-DlQtlGeS-VwI-2" value="CPU" style="rounded=0;whiteSpace=wrap;html=1;verticalAlign=top;" vertex="1" parent="1">
          <mxGeometry x="166" y="155" width="150" height="115" as="geometry" />
        </mxCell>
        <mxCell id="b-FfrLe-DlQtlGeS-VwI-5" value="&lt;div&gt;&lt;span&gt;count = 1000&lt;/span&gt;&lt;/div&gt;&lt;div&gt;&lt;br&gt;&lt;/div&gt;Main Memory" style="rounded=0;whiteSpace=wrap;html=1;fontStyle=1" vertex="1" parent="1">
          <mxGeometry x="166" y="405" width="330" height="60" as="geometry" />
        </mxCell>
        <mxCell id="b-FfrLe-DlQtlGeS-VwI-7" value="CPU Cache Memory&lt;div&gt;&lt;br&gt;&lt;/div&gt;&lt;div&gt;&lt;span&gt;count = 1000&lt;/span&gt;&lt;/div&gt;" style="rounded=0;whiteSpace=wrap;html=1;fontStyle=1" vertex="1" parent="1">
          <mxGeometry x="176" y="310" width="130" height="60" as="geometry" />
        </mxCell>
        <mxCell id="b-FfrLe-DlQtlGeS-VwI-17" value="Thread&lt;div&gt;&lt;br&gt;&lt;/div&gt;&lt;div&gt;&lt;span&gt;count += 1&lt;/span&gt;&lt;/div&gt;" style="rounded=0;whiteSpace=wrap;html=1;fontStyle=1" vertex="1" parent="1">
          <mxGeometry x="176" y="190" width="130" height="60" as="geometry" />
        </mxCell>
        <mxCell id="b-FfrLe-DlQtlGeS-VwI-18" value="CPU" style="rounded=0;whiteSpace=wrap;html=1;verticalAlign=top;" vertex="1" parent="1">
          <mxGeometry x="346" y="155" width="150" height="115" as="geometry" />
        </mxCell>
        <mxCell id="b-FfrLe-DlQtlGeS-VwI-19" value="CPU Cache Memory&lt;div&gt;&lt;br&gt;&lt;/div&gt;&lt;div&gt;&lt;br&gt;&lt;/div&gt;" style="rounded=0;whiteSpace=wrap;html=1;" vertex="1" parent="1">
          <mxGeometry x="356" y="310" width="130" height="60" as="geometry" />
        </mxCell>
        <mxCell id="b-FfrLe-DlQtlGeS-VwI-20" value="Thread&lt;div&gt;&lt;br&gt;&lt;/div&gt;&lt;div&gt;&lt;br&gt;&lt;/div&gt;" style="rounded=0;whiteSpace=wrap;html=1;" vertex="1" parent="1">
          <mxGeometry x="356" y="190" width="130" height="60" as="geometry" />
        </mxCell>
        <mxCell id="b-FfrLe-DlQtlGeS-VwI-22" value="" style="rounded=1;whiteSpace=wrap;html=1;strokeColor=#FF3333;fillColor=none;" vertex="1" parent="1">
          <mxGeometry x="280" y="410" width="100" height="20" as="geometry" />
        </mxCell>
        <mxCell id="b-FfrLe-DlQtlGeS-VwI-23" value="" style="rounded=1;whiteSpace=wrap;html=1;strokeColor=#FF3333;fillColor=none;" vertex="1" parent="1">
          <mxGeometry x="191" y="345" width="100" height="20" as="geometry" />
        </mxCell>
        <mxCell id="b-FfrLe-DlQtlGeS-VwI-24" value="" style="rounded=1;whiteSpace=wrap;html=1;strokeColor=#FF3333;fillColor=none;" vertex="1" parent="1">
          <mxGeometry x="193" y="225" width="100" height="20" as="geometry" />
        </mxCell>
        <mxCell id="b-FfrLe-DlQtlGeS-VwI-27" value="" style="endArrow=block;html=1;rounded=0;exitX=0.09;exitY=-0.05;exitDx=0;exitDy=0;exitPerimeter=0;entryX=0.87;entryY=0.9;entryDx=0;entryDy=0;entryPerimeter=0;endFill=1;strokeColor=#FF3333;" edge="1" parent="1" source="b-FfrLe-DlQtlGeS-VwI-22" target="b-FfrLe-DlQtlGeS-VwI-23">
          <mxGeometry width="50" height="50" relative="1" as="geometry">
            <mxPoint x="400" y="480" as="sourcePoint" />
            <mxPoint x="450" y="430" as="targetPoint" />
          </mxGeometry>
        </mxCell>
        <mxCell id="b-FfrLe-DlQtlGeS-VwI-29" style="edgeStyle=orthogonalEdgeStyle;rounded=0;orthogonalLoop=1;jettySize=auto;html=1;exitX=0.75;exitY=0;exitDx=0;exitDy=0;entryX=0.692;entryY=0.967;entryDx=0;entryDy=0;entryPerimeter=0;endArrow=block;endFill=1;strokeColor=#FF3333;" edge="1" parent="1" source="b-FfrLe-DlQtlGeS-VwI-23" target="b-FfrLe-DlQtlGeS-VwI-17">
          <mxGeometry relative="1" as="geometry" />
        </mxCell>
      </root>
    </mxGraphModel>
  </diagram>
</mxfile>
